<svg xmlns="http://www.w3.org/2000/svg" viewBox="-3.75 -3.75 207.5 207.5" font-size="16" font-family="Arial, sans-serif"><g><rect x="-3.75" y="-3.75" width="207.5" height="207.5" fill="#fff"></rect><g transform="scale(50)"><rect width="4" height="4" fill="#fff"></rect><path d="" fill="#fff0" stroke-width="0.1" stroke-dasharray=""></path><path d="" fill="transparent" stroke="#eedd0099" stroke-width="0.14" stroke-dasharray=""></path><path d="M0.5 0.5L0.5 1.5L1.5 1.5L1.5 2.5L2.5 2.5L2.5 1.5L3.5 1.5L3.5 2.5L3.5 3.5" fill="none" stroke="#66ff68ff" stroke-width="0.15" stroke-linecap="round" stroke-linejoin="round"></path><line x1="0" y1="0" x2="0" y2="1" stroke-width="0.06" stroke="#000" stroke-linecap="round"></line><line x1="0" y1="0" x2="1" y2="0" stroke-width="0.06" stroke="#000" stroke-linecap="round"></line><line x1="1" y1="0" x2="2" y2="0" stroke-width="0.06" stroke="#000" stroke-linecap="round"></line><line x1="2" y1="0" x2="2" y2="1" stroke-width="0.06" stroke="#000" stroke-linecap="round"></line><line x1="2" y1="0" x2="3" y2="0" stroke-width="0.06" stroke="#000" stroke-linecap="round"></line><line x1="4" y1="0" x2="4" y2="1" stroke-width="0.06" stroke="#000" stroke-linecap="round"></line><line x1="3" y1="0" x2="4" y2="0" stroke-width="0.06" stroke="#000" stroke-linecap="round"></line><line x1="0" y1="1" x2="0" y2="2" stroke-width="0.06" stroke="#000" stroke-linecap="round"></line><line x1="0" y1="2" x2="1" y2="2" stroke-width="0.06" stroke="#000" stroke-linecap="round"></line><line x1="2" y1="1" x2="2" y2="2" stroke-width="0.06" stroke="#000" stroke-linecap="round"></line><line x1="1" y1="2" x2="2" y2="2" stroke-width="0.06" stroke="#000" stroke-linecap="round"></line><line x1="2" y1="2" x2="3" y2="2" stroke-width="0.06" stroke="#000" stroke-linecap="round"></line><line x1="4" y1="1" x2="4" y2="2" stroke-width="0.06" stroke="#000" stroke-linecap="round"></line><line x1="3" y1="2" x2="4" y2="2" stroke-width="0.06" stroke="#000" stroke-linecap="round"></line><line x1="0" y1="2" x2="0" y2="3" stroke-width="0.06" stroke="#000" stroke-linecap="round"></line><line x1="2" y1="2" x2="2" y2="3" stroke-width="0.06" stroke="#000" stroke-linecap="round"></line><line x1="4" y1="2" x2="4" y2="3" stroke-width="0.06" stroke="#000" stroke-linecap="round"></line><line x1="0" y1="3" x2="0" y2="4" stroke-width="0.06" stroke="#000" stroke-linecap="round"></line><line x1="0" y1="4" x2="1" y2="4" stroke-width="0.06" stroke="#000" stroke-linecap="round"></line><line x1="1" y1="4" x2="2" y2="4" stroke-width="0.06" stroke="#000" stroke-linecap="round"></line><line x1="2" y1="3" x2="2" y2="4" stroke-width="0.06" stroke="#000" stroke-linecap="round"></line><line x1="2" y1="4" x2="3" y2="4" stroke-width="0.06" stroke="#000" stroke-linecap="round"></line><line x1="4" y1="3" x2="4" y2="4" stroke-width="0.06" stroke="#000" stroke-linecap="round"></line><line x1="3" y1="4" x2="4" y2="4" stroke-width="0.06" stroke="#000" stroke-linecap="round"></line><line x1="1" y1="0" x2="1" y2="4" stroke-width="0.015" stroke="#000"></line><line x1="2" y1="0" x2="2" y2="4" stroke-width="0.015" stroke="#000"></line><line x1="3" y1="0" x2="3" y2="4" stroke-width="0.015" stroke="#000"></line><line x1="0" y1="1" x2="4" y2="1" stroke-width="0.015" stroke="#000"></line><line x1="0" y1="2" x2="4" y2="2" stroke-width="0.015" stroke="#000"></line><line x1="0" y1="3" x2="4" y2="3" stroke-width="0.015" stroke="#000"></line><rect width="4" height="4" fill="none" stroke="#000" stroke-width="0.015"></rect><path d="M2 2L2 1L2 0L3 0L4 0L4 1L4 2L4 3L4 4L3 4L2 4L1 4L0 4L0 3L0 2L0 1L0 0L1 0L2 0M3 4L3 3" fill="none" stroke="#9966ccff" stroke-width="0.15" stroke-linecap="round" stroke-linejoin="round"></path><g transform="translate(2 2) rotate(0)"><ellipse rx="0.12" ry="0.12" fill="#9966ccff" stroke="#000000" stroke-width="0"></ellipse></g><g transform="translate(3 3) rotate(0)"><ellipse rx="0.12" ry="0.12" fill="#9966ccff" stroke="#000000" stroke-width="0"></ellipse></g><g transform="translate(1 2) rotate(0)"><ellipse rx="0.12" ry="0.12" fill="#9966ccff" stroke="#000000" stroke-width="0"></ellipse></g><g transform="translate(0.5 0.5) rotate(0)"><g stroke="#ffffff" stroke-width="0.02" paint-order="stroke"><text x="0" y="0.168" font-size="0.48" fill="#000000" stroke-miterlimit="1.5" stroke-linejoin="round" text-anchor="middle">🦫</text></g></g><g transform="translate(3.5 3.5) rotate(0)"><g stroke="#ffffff" stroke-width="0.02" paint-order="stroke"><text x="0" y="0.168" font-size="0.48" fill="#000000" stroke-miterlimit="1.5" stroke-linejoin="round" text-anchor="middle">👟</text></g></g></g><g transform="translate(25 25) scale(25)" paint-order="stroke" stroke="#fff" stroke-linecap="round" stroke-linejoin="round" fill="#5274ea"></g><g transform="translate(75 25) scale(25)" paint-order="stroke" stroke="#fff" stroke-linecap="round" stroke-linejoin="round" fill="#5274ea"></g><g transform="translate(125 25) scale(25)" paint-order="stroke" stroke="#fff" stroke-linecap="round" stroke-linejoin="round" fill="#5274ea"></g><g transform="translate(175 25) scale(25)" paint-order="stroke" stroke="#fff" stroke-linecap="round" stroke-linejoin="round" fill="#5274ea"></g><g transform="translate(25 75) scale(25)" paint-order="stroke" stroke="#fff" stroke-linecap="round" stroke-linejoin="round" fill="#5274ea"></g><g transform="translate(75 75) scale(25)" paint-order="stroke" stroke="#fff" stroke-linecap="round" stroke-linejoin="round" fill="#5274ea"></g><g transform="translate(125 75) scale(25)" paint-order="stroke" stroke="#fff" stroke-linecap="round" stroke-linejoin="round" fill="#5274ea"></g><g transform="translate(175 75) scale(25)" paint-order="stroke" stroke="#fff" stroke-linecap="round" stroke-linejoin="round" fill="#5274ea"></g><g transform="translate(25 125) scale(25)" paint-order="stroke" stroke="#fff" stroke-linecap="round" stroke-linejoin="round" fill="#5274ea"></g><g transform="translate(75 125) scale(25)" paint-order="stroke" stroke="#fff" stroke-linecap="round" stroke-linejoin="round" fill="#5274ea"></g><g transform="translate(125 125) scale(25)" paint-order="stroke" stroke="#fff" stroke-linecap="round" stroke-linejoin="round" fill="#5274ea"></g><g transform="translate(175 125) scale(25)" paint-order="stroke" stroke="#fff" stroke-linecap="round" stroke-linejoin="round" fill="#5274ea"></g><g transform="translate(25 175) scale(25)" paint-order="stroke" stroke="#fff" stroke-linecap="round" stroke-linejoin="round" fill="#5274ea"></g><g transform="translate(75 175) scale(25)" paint-order="stroke" stroke="#fff" stroke-linecap="round" stroke-linejoin="round" fill="#5274ea"></g><g transform="translate(125 175) scale(25)" paint-order="stroke" stroke="#fff" stroke-linecap="round" stroke-linejoin="round" fill="#5274ea"></g><g transform="translate(175 175) scale(25)" paint-order="stroke" stroke="#fff" stroke-linecap="round" stroke-linejoin="round" fill="#5274ea"></g><g transform="scale(50)"></g></g></svg>